HIERARCHY
ROOT Hips
{
	OFFSET 0.000000 0.000000 0.000000
	CHANNELS 6 Xposition Yposition Zposition Zrotation Xrotation Yrotation
	JOINT LHipJoint
	{
		OFFSET 0.000000 0.000000 0.000000
		CHANNELS 3 Zrotation Xrotation Yrotation
		JOINT LeftUpLeg
		{
			OFFSET 0.076937 -0.101296 0.047373
			CHANNELS 3 Zrotation Xrotation Yrotation
			JOINT LeftLeg
			{
				OFFSET 0.138181 -0.379650 0.000000
				CHANNELS 3 Zrotation Xrotation Yrotation
				JOINT LeftFoot
				{
					OFFSET 0.144621 -0.397343 0.000000
					CHANNELS 3 Zrotation Xrotation Yrotation
					JOINT LeftToeBase
					{
						OFFSET 0.008898 -0.024446 0.131094
						CHANNELS 3 Zrotation Xrotation Yrotation
						JOINT End_Site
						{
							OFFSET 0.000000 -0.000000 0.067149
							CHANNELS 3 Zrotation Xrotation Yrotation
							End Site
							{
								OFFSET 0.000000 -0.000000 0.020145
							}
						}
					}
				}
			}
		}
	}
	JOINT RHipJoint
	{
		OFFSET 0.000000 0.000000 0.000000
		CHANNELS 3 Zrotation Xrotation Yrotation
		JOINT RightUpLeg
		{
			OFFSET -0.073689 -0.101296 0.047373
			CHANNELS 3 Zrotation Xrotation Yrotation
			JOINT RightLeg
			{
				OFFSET -0.143511 -0.394292 0.000000
				CHANNELS 3 Zrotation Xrotation Yrotation
				JOINT RightFoot
				{
					OFFSET -0.144963 -0.398282 0.000000
					CHANNELS 3 Zrotation Xrotation Yrotation
					JOINT RightToeBase
					{
						OFFSET -0.009298 -0.025546 0.133386
						CHANNELS 3 Zrotation Xrotation Yrotation
						JOINT End_Site
						{
							OFFSET -0.000000 -0.000000 0.068344
							CHANNELS 3 Zrotation Xrotation Yrotation
							End Site
							{
								OFFSET -0.000000 -0.000000 0.020503
							}
						}
					}
				}
			}
		}
	}
	JOINT LowerBack
	{
		OFFSET 0.000000 0.000000 0.000000
		CHANNELS 3 Zrotation Xrotation Yrotation
		JOINT Spine
		{
			OFFSET 0.001596 0.114897 -0.010915
			CHANNELS 3 Zrotation Xrotation Yrotation
			JOINT Spine1
			{
				OFFSET 0.003202 0.115645 -0.002413
				CHANNELS 3 Zrotation Xrotation Yrotation
				JOINT Neck
				{
					OFFSET 0.000000 0.000000 0.000000
					CHANNELS 3 Zrotation Xrotation Yrotation
					JOINT Neck1
					{
						OFFSET -0.003058 0.098565 0.009709
						CHANNELS 3 Zrotation Xrotation Yrotation
						JOINT Head
						{
							OFFSET 0.005874 0.099418 -0.006997
							CHANNELS 3 Zrotation Xrotation Yrotation
							JOINT End_Site
							{
								OFFSET 0.002100 0.099931 -0.003523
								CHANNELS 3 Zrotation Xrotation Yrotation
								End Site
								{
									OFFSET 0.000630 0.029979 -0.001057
								}
							}
						}
					}
				}
				JOINT LeftShoulder
				{
					OFFSET 0.000000 0.000000 0.000000
					CHANNELS 3 Zrotation Xrotation Yrotation
					JOINT LeftArm
					{
						OFFSET 0.189788 0.067783 -0.017566
						CHANNELS 3 Zrotation Xrotation Yrotation
						JOINT LeftForeArm
						{
							OFFSET 0.281260 -0.000000 -0.000000
							CHANNELS 3 Zrotation Xrotation Yrotation
							JOINT LeftHand
							{
								OFFSET 0.196626 -0.000000 -0.000000
								CHANNELS 3 Zrotation Xrotation Yrotation
								JOINT LeftFingerBase
								{
									OFFSET 0.000000 0.000000 0.000000
									CHANNELS 3 Zrotation Xrotation Yrotation
									JOINT LeftHandIndex1
									{
										OFFSET 0.040372 -0.000000 -0.000000
										CHANNELS 3 Zrotation Xrotation Yrotation
										JOINT End_Site
										{
											OFFSET 0.032549 -0.000000 -0.000000
											CHANNELS 3 Zrotation Xrotation Yrotation
											End Site
											{
												OFFSET 0.009765 -0.000000 -0.000000
											}
										}
									}
								}
								JOINT LThumb
								{
									OFFSET 0.000000 0.000000 0.000000
									CHANNELS 3 Zrotation Xrotation Yrotation
									JOINT End_Site
									{
										OFFSET 0.033046 -0.000000 0.033046
										CHANNELS 3 Zrotation Xrotation Yrotation
										End Site
										{
											OFFSET 0.009914 -0.000000 0.009914
										}
									}
								}
							}
						}
					}
				}
				JOINT RightShoulder
				{
					OFFSET 0.000000 0.000000 0.000000
					CHANNELS 3 Zrotation Xrotation Yrotation
					JOINT RightArm
					{
						OFFSET -0.177042 0.077557 -0.022840
						CHANNELS 3 Zrotation Xrotation Yrotation
						JOINT RightForeArm
						{
							OFFSET -0.295874 -0.000000 -0.000000
							CHANNELS 3 Zrotation Xrotation Yrotation
							JOINT RightHand
							{
								OFFSET -0.194403 -0.000000 -0.000000
								CHANNELS 3 Zrotation Xrotation Yrotation
								JOINT RightFingerBase
								{
									OFFSET 0.000000 0.000000 0.000000
									CHANNELS 3 Zrotation Xrotation Yrotation
									JOINT RightHandIndex1
									{
										OFFSET -0.035138 -0.000000 -0.000000
										CHANNELS 3 Zrotation Xrotation Yrotation
										JOINT End_Site
										{
											OFFSET -0.028329 -0.000000 -0.000000
											CHANNELS 3 Zrotation Xrotation Yrotation
											End Site
											{
												OFFSET -0.008499 -0.000000 -0.000000
											}
										}
									}
								}
								JOINT RThumb
								{
									OFFSET 0.000000 0.000000 0.000000
									CHANNELS 3 Zrotation Xrotation Yrotation
									JOINT End_Site
									{
										OFFSET -0.028762 -0.000000 0.028762
										CHANNELS 3 Zrotation Xrotation Yrotation
										End Site
										{
											OFFSET -0.008628 -0.000000 0.008628
										}
									}
								}
							}
						}
					}
				}
			}
		}
	}
}
MOTION
Frames: 7
Frame Time: 0.03333333
0.343935 0.994625 0.193965 0.000000 0.000000 0.000000 -52.336702 34.368776 36.081558 29.979525 -32.567477 -2.933943 -26.575348 -10.564638 -6.947609 6.830946 15.148846 98.862772 4.301960 -25.197928 19.078293 0.000000 0.000000 0.000000 45.998492 10.123843 16.889312 -21.146738 -0.488465 0.081098 -25.956712 -1.965657 0.242130 -20.984478 52.270913 70.422289 0.362106 -2.678220 15.397137 0.000000 0.000000 0.000000 -13.250895 -0.533959 -1.316311 -2.727196 -6.586953 -0.031271 0.000000 0.000000 0.000000 3.105659 -3.474513 -0.320294 6.853703 8.120563 -0.488902 -6.445012 -3.489860 -0.349842 0.000000 0.000000 0.000000 61.553433 22.900339 73.061978 -56.471191 -43.430605 73.124282 -42.455449 5.748200 -14.729267 0.000000 0.000000 0.000000 15.593965 0.133650 0.976031 -0.552725 -0.025114 5.203087 0.000000 0.000000 0.000000 5.274204 -1.597399 56.320406 0.000000 0.000000 0.000000 -73.003497 -8.783466 68.050787 -1.775194 -2.949030 117.914728 -34.429738 -6.962672 22.217177 0.000000 0.000000 0.000000 -16.369913 1.260525 -8.747062 8.478219 0.335441 4.523210 0.000000 0.000000 0.000000 5.890002 3.484754 -28.808352 0.000000 0.000000 0.000000
0.356780 0.979423 0.192942 0.000000 0.000000 0.000000 -52.035330 33.777644 34.331726 29.796230 -31.115633 -2.847789 -25.554104 -10.759964 -6.940159 4.997162 16.431885 98.468892 4.952202 -26.013747 21.206511 0.000000 0.000000 0.000000 45.586533 10.871373 15.306226 -20.577402 -2.618119 0.448130 -24.902964 -2.452946 0.325099 -23.680065 55.373500 70.499285 0.252173 -1.737108 16.518432 0.000000 0.000000 0.000000 -13.633961 -0.327463 -1.333328 -2.708046 -6.541679 -0.029955 0.000000 0.000000 0.000000 2.257449 -3.436623 -0.261930 7.993960 7.656826 -0.429124 -5.120835 -3.882895 -0.272136 0.000000 0.000000 0.000000 64.023026 24.238321 70.861870 -51.692481 -45.061803 81.152494 -42.836372 4.487989 -11.409309 0.000000 0.000000 0.000000 14.251766 0.046160 0.369230 0.224409 0.008961 4.573200 0.000000 0.000000 0.000000 6.757878 -2.107028 55.400349 0.000000 0.000000 0.000000 -75.724279 -9.163124 64.532152 -4.903735 -8.643157 120.926117 -34.194700 -5.692995 18.364797 0.000000 0.000000 0.000000 -14.845429 1.289117 -9.870870 7.805579 0.341969 5.009415 0.000000 0.000000 0.000000 4.419075 2.582856 -29.405540 0.000000 0.000000 0.000000
0.371100 0.976007 0.196077 0.000000 0.000000 0.000000 -51.632699 33.017130 32.128029 29.538551 -29.052104 -2.717632 -24.095127 -11.023325 -6.913830 2.160705 18.454921 98.396975 6.027224 -27.028169 24.710890 0.000000 0.000000 0.000000 45.252083 11.913443 13.296331 -20.284771 -5.220178 0.907696 -23.244206 -3.162990 0.465940 -27.329465 59.186327 70.972595 0.065434 -0.416830 17.842879 0.000000 0.000000 0.000000 -13.809894 -0.002590 -1.316324 -2.655065 -6.434839 -0.026310 0.000000 0.000000 0.000000 1.416151 -3.375808 -0.203040 8.846556 7.183916 -0.360810 -3.857267 -4.317703 -0.190333 0.000000 0.000000 0.000000 67.964905 26.125401 67.356530 -42.316460 -45.386087 94.428092 -42.756424 2.410402 -6.152502 0.000000 0.000000 0.000000 13.190079 -0.043269 -0.374244 1.004064 0.033050 3.770422 0.000000 0.000000 0.000000 8.645843 -2.834241 53.757608 0.000000 0.000000 0.000000 -79.484736 -9.241129 59.192460 -9.224397 -17.452464 124.548349 -33.629041 -4.192186 13.811404 0.000000 0.000000 0.000000 -12.921665 1.277577 -11.245939 6.833206 0.328639 5.500472 0.000000 0.000000 0.000000 2.593095 1.484408 -30.428041 0.000000 0.000000 0.000000
0.381131 0.948662 0.196808 0.000000 0.000000 0.000000 -51.155829 32.049578 29.408140 29.226866 -26.181931 -2.512197 -22.285307 -11.513944 -6.972241 -2.015548 21.388341 98.798510 7.613829 -27.841937 30.054491 0.000000 0.000000 0.000000 45.062919 13.336255 10.735773 -20.231042 -8.475417 1.479446 -21.045487 -4.095131 0.683903 -32.679371 63.881147 72.485899 -0.273143 1.588381 19.513496 0.000000 0.000000 0.000000 -13.774367 0.464896 -1.263516 -2.574725 -6.286618 -0.020900 0.000000 0.000000 0.000000 0.543894 -3.305345 -0.140829 9.540184 6.568928 -0.266676 -2.551878 -4.851882 -0.095907 0.000000 0.000000 0.000000 74.431016 28.511355 61.371239 -26.724383 -40.548533 114.515394 -41.152656 -0.791739 2.108828 0.000000 0.000000 0.000000 12.299025 -0.187569 -1.740760 1.664304 0.038613 2.657948 0.000000 0.000000 0.000000 10.693763 -3.811438 50.858102 0.000000 0.000000 0.000000 -84.446124 -8.650496 51.715091 -16.298124 -31.883470 126.750497 -32.651087 -2.216819 7.558367 0.000000 0.000000 0.000000 -10.048866 1.162425 -13.163882 5.313629 0.291772 6.281431 0.000000 0.000000 0.000000 -0.156892 -0.086591 -32.209768 0.000000 0.000000 0.000000
0.384045 0.951755 0.195957 0.000000 0.000000 0.000000 -50.594537 30.958757 26.446765 28.770455 -23.031978 -2.294982 -19.953057 -11.850577 -6.851756 -7.650341 25.209304 99.124066 9.774784 -28.113079 37.712135 0.000000 0.000000 0.000000 44.934015 15.001200 7.747161 -20.247382 -12.255843 2.141686 -18.399946 -4.952981 0.945403 -39.292704 68.995677 74.483645 -0.818330 4.419821 20.969239 0.000000 0.000000 0.000000 -13.518437 1.046777 -1.179745 -2.454756 -6.142981 -0.012721 0.000000 0.000000 0.000000 -0.289027 -3.228416 -0.080077 9.931088 6.194571 -0.206197 -1.443120 -5.332653 -0.005943 0.000000 0.000000 0.000000 83.991471 30.390283 51.747248 -9.527291 -22.919548 135.307440 -34.277735 -4.569342 14.743075 0.000000 0.000000 0.000000 10.784010 -0.446327 -4.726027 1.961608 0.019739 1.152941 0.000000 0.000000 0.000000 11.084234 -4.594300 45.077873 0.000000 0.000000 0.000000 -89.781550 -6.808187 42.482022 -33.355506 -53.491320 118.537875 -30.729160 0.304463 -1.107989 0.000000 0.000000 0.000000 -5.315935 0.706886 -15.138382 2.956955 0.180633 6.989898 0.000000 0.000000 0.000000 -3.340400 -1.743985 -34.872582 0.000000 0.000000 0.000000
0.378110 0.943411 0.196049 0.000000 0.000000 0.000000 -49.817968 29.703450 23.192054 27.905098 -19.571844 -2.093637 -17.103844 -11.912269 -6.498291 -15.146913 30.147720 99.223939 12.377802 -26.846804 48.869826 0.000000 0.000000 0.000000 44.804588 16.913997 4.237432 -20.035784 -16.758414 2.970104 -15.290605 -5.495772 1.204650 -47.850302 74.663372 77.299573 -1.605573 8.220454 22.067535 0.000000 0.000000 0.000000 -13.005810 1.752704 -1.065251 -2.327236 -5.970951 -0.004500 0.000000 0.000000 0.000000 -1.119463 -3.136165 -0.017730 10.100432 6.011416 -0.176062 -0.460844 -5.752869 0.081427 0.000000 0.000000 0.000000 97.026005 29.611782 36.917543 5.803173 7.080452 146.698540 -13.778466 -3.702846 29.956062 0.000000 0.000000 0.000000 5.692478 -0.461144 -9.255229 1.214985 -0.005074 -0.478580 0.000000 0.000000 0.000000 5.753743 -2.849575 37.334549 0.000000 0.000000 0.000000 -94.523753 -3.188949 31.498226 -63.355506 -64.198623 88.537875 -23.896704 3.008741 -14.148946 0.000000 0.000000 0.000000 3.286462 -0.440553 -15.265995 -1.034175 -0.061241 6.777715 0.000000 0.000000 0.000000 -6.606575 -3.092839 -39.865225 0.000000 0.000000 0.000000
0.369392 0.942928 0.196979 0.000000 0.000000 0.000000 -49.101812 28.407707 19.990622 27.012074 -16.009292 -1.834110 -14.297859 -12.028571 -6.185038 -24.414082 36.014576 99.536623 13.622165 -22.227273 62.600830 0.000000 0.000000 0.000000 44.889054 18.890460 0.634752 -19.925109 -21.324417 3.817204 -12.009152 -5.949227 1.484057 -58.959991 80.327402 81.983828 -2.502197 12.766647 22.092075 0.000000 0.000000 0.000000 -12.359232 2.487574 -0.944370 -2.148913 -5.806544 0.007036 0.000000 0.000000 0.000000 -1.817388 -3.088640 0.034315 10.107013 5.942545 -0.165657 0.352347 -6.120046 0.159681 0.000000 0.000000 0.000000 109.952635 23.788445 19.370744 -24.196827 37.080452 176.698540 16.221534 3.332224 18.813992 0.000000 0.000000 0.000000 -5.207220 0.376529 -8.265967 -0.531154 0.000679 -0.146386 0.000000 0.000000 0.000000 -6.199610 2.915237 39.665002 0.000000 0.000000 0.000000 -97.857736 1.690555 20.068860 -93.355506 -34.198623 58.537875 -4.557382 1.079022 -26.627748 0.000000 0.000000 0.000000 13.770492 -0.790164 -6.536697 -5.171984 -0.143728 3.181478 0.000000 0.000000 0.000000 -6.673045 -2.649490 -46.726974 0.000000 0.000000 0.000000
